<mxfile host="65bd71144e">
    <diagram id="YAmzG8sBcFoOfr_V3oH1" name="Page-1">
        <mxGraphModel dx="1847" dy="2086" grid="1" gridSize="10" guides="1" tooltips="1" connect="1" arrows="1" fold="1" page="1" pageScale="1" pageWidth="827" pageHeight="1169" math="0" shadow="0">
            <root>
                <mxCell id="0"/>
                <mxCell id="1" parent="0"/>
                <mxCell id="15" value="students table" style="swimlane;childLayout=stackLayout;horizontal=1;startSize=30;horizontalStack=0;rounded=1;fontSize=14;fontStyle=0;strokeWidth=2;resizeParent=0;resizeLast=1;shadow=0;dashed=0;align=center;" parent="1" vertex="1">
                    <mxGeometry x="210" y="190" width="300" height="210" as="geometry">
                        <mxRectangle x="210" y="190" width="100" height="30" as="alternateBounds"/>
                    </mxGeometry>
                </mxCell>
                <mxCell id="16" value="+ id INT PRIMARY KEY AUTO_INCREMENT&#10;+ first_name VARCHAR(50) NOT NULL&#10;+ last_name VARCHAR(50) NOT NULL&#10;+ email VARCHAR(255)  NOT NULL&#10;+ date_registered DATETIME NOT NULL" style="align=left;strokeColor=none;fillColor=none;spacingLeft=4;fontSize=12;verticalAlign=top;resizable=0;rotatable=0;part=1;" parent="15" vertex="1">
                    <mxGeometry y="30" width="300" height="180" as="geometry"/>
                </mxCell>
                <mxCell id="17" value="enrollments table" style="swimlane;childLayout=stackLayout;horizontal=1;startSize=30;horizontalStack=0;rounded=1;fontSize=14;fontStyle=0;strokeWidth=2;resizeParent=0;resizeLast=1;shadow=0;dashed=0;align=center;" parent="1" vertex="1">
                    <mxGeometry x="610" y="600" width="620" height="320" as="geometry">
                        <mxRectangle x="210" y="190" width="100" height="30" as="alternateBounds"/>
                    </mxGeometry>
                </mxCell>
                <mxCell id="18" value="+ student_id INT FOREIGN KEY REFERENCES students(id) ON UPDATE CASCADE ON DELETE RESTRICT&#10;+ course_id INT FOREIGN KEY REFERENCES courses(id) ON UPDATE CASCADE ON DELETE RESTRICT&#10;+ date DATETIME NOT NULL&#10;+ price DECIMAL(5, 2) NOT NULL&#10;+ PRIMARY KEY (student_id, course_id)" style="align=left;strokeColor=none;fillColor=none;spacingLeft=4;fontSize=12;verticalAlign=top;resizable=0;rotatable=0;part=1;" parent="17" vertex="1">
                    <mxGeometry y="30" width="620" height="290" as="geometry"/>
                </mxCell>
                <mxCell id="19" value="courses table" style="swimlane;childLayout=stackLayout;horizontal=1;startSize=30;horizontalStack=0;rounded=1;fontSize=14;fontStyle=0;strokeWidth=2;resizeParent=0;resizeLast=1;shadow=0;dashed=0;align=center;" parent="1" vertex="1">
                    <mxGeometry x="1354" y="170" width="686" height="250" as="geometry">
                        <mxRectangle x="210" y="190" width="100" height="30" as="alternateBounds"/>
                    </mxGeometry>
                </mxCell>
                <mxCell id="20" value="+ id INT PRIMARY KEY AUTO_INCREMENT&#10;+ title VARCHAR(255) NOT NULL&#10;+ price DECIMAL(5,2) NOT NULL&#10;+ instructor_id SMALLINT FOREIGN KEY REFERENCES instructors(id) ON  UPDATE CASCADE ON DELETE SET NULL" style="align=left;strokeColor=none;fillColor=none;spacingLeft=4;fontSize=12;verticalAlign=top;resizable=0;rotatable=0;part=1;" parent="19" vertex="1">
                    <mxGeometry y="30" width="686" height="220" as="geometry"/>
                </mxCell>
                <mxCell id="21" value="" style="edgeStyle=entityRelationEdgeStyle;fontSize=12;html=1;endArrow=ERoneToMany;entryX=0;entryY=0.5;entryDx=0;entryDy=0;exitX=1;exitY=0.5;exitDx=0;exitDy=0;" parent="1" source="16" target="17" edge="1">
                    <mxGeometry width="100" height="100" relative="1" as="geometry">
                        <mxPoint x="480" y="540" as="sourcePoint"/>
                        <mxPoint x="580" y="440" as="targetPoint"/>
                    </mxGeometry>
                </mxCell>
                <mxCell id="22" value="" style="edgeStyle=entityRelationEdgeStyle;fontSize=12;html=1;endArrow=ERoneToMany;entryX=1;entryY=0.5;entryDx=0;entryDy=0;exitX=0;exitY=0.25;exitDx=0;exitDy=0;" parent="1" source="20" target="18" edge="1">
                    <mxGeometry width="100" height="100" relative="1" as="geometry">
                        <mxPoint x="970" y="390" as="sourcePoint"/>
                        <mxPoint x="1070" y="290" as="targetPoint"/>
                    </mxGeometry>
                </mxCell>
                <mxCell id="23" value="tags table" style="swimlane;childLayout=stackLayout;horizontal=1;startSize=30;horizontalStack=0;rounded=1;fontSize=14;fontStyle=0;strokeWidth=2;resizeParent=0;resizeLast=1;shadow=0;dashed=0;align=center;" vertex="1" parent="1">
                    <mxGeometry x="440" y="-280" width="390" height="240" as="geometry">
                        <mxRectangle x="210" y="190" width="100" height="30" as="alternateBounds"/>
                    </mxGeometry>
                </mxCell>
                <mxCell id="24" value="+ id INT PRIMARY KEY AUTO_INCREMENT&#10;+ name VARCHAR(50) NOT NULL&#10;" style="align=left;strokeColor=none;fillColor=none;spacingLeft=4;fontSize=12;verticalAlign=top;resizable=0;rotatable=0;part=1;" vertex="1" parent="23">
                    <mxGeometry y="30" width="390" height="210" as="geometry"/>
                </mxCell>
                <mxCell id="27" value="course_tags table" style="swimlane;childLayout=stackLayout;horizontal=1;startSize=30;horizontalStack=0;rounded=1;fontSize=14;fontStyle=0;strokeWidth=2;resizeParent=0;resizeLast=1;shadow=0;dashed=0;align=center;" vertex="1" parent="1">
                    <mxGeometry x="1030" y="-400" width="610" height="290" as="geometry">
                        <mxRectangle x="210" y="190" width="100" height="30" as="alternateBounds"/>
                    </mxGeometry>
                </mxCell>
                <mxCell id="28" value="+ tag_id INT FOREIGN KEY REFERENCES tags(id) ON UPDATE CASCADE ON DELETE CASCADE&#10;+ course_id INT FOREIGN KEY REFERENCES courses(id) ON UPDATE CASCADE ON DELETE CASCADE&#10;+ PRIMARY KEY (tag_id, course_id)" style="align=left;strokeColor=none;fillColor=none;spacingLeft=4;fontSize=12;verticalAlign=top;resizable=0;rotatable=0;part=1;" vertex="1" parent="27">
                    <mxGeometry y="30" width="610" height="260" as="geometry"/>
                </mxCell>
                <mxCell id="29" value="" style="edgeStyle=entityRelationEdgeStyle;fontSize=12;html=1;endArrow=ERoneToMany;entryX=-0.006;entryY=0.56;entryDx=0;entryDy=0;exitX=1.001;exitY=0.336;exitDx=0;exitDy=0;exitPerimeter=0;entryPerimeter=0;" edge="1" parent="1" source="24" target="28">
                    <mxGeometry width="100" height="100" relative="1" as="geometry">
                        <mxPoint x="1060" y="-60" as="sourcePoint"/>
                        <mxPoint x="1160" y="389.99999999999955" as="targetPoint"/>
                    </mxGeometry>
                </mxCell>
                <mxCell id="30" value="" style="edgeStyle=entityRelationEdgeStyle;fontSize=12;html=1;endArrow=ERoneToMany;entryX=0.593;entryY=1.005;entryDx=0;entryDy=0;exitX=0.401;exitY=-0.007;exitDx=0;exitDy=0;exitPerimeter=0;entryPerimeter=0;" edge="1" parent="1" source="19" target="28">
                    <mxGeometry width="100" height="100" relative="1" as="geometry">
                        <mxPoint x="1406.02" y="114.96000000000015" as="sourcePoint"/>
                        <mxPoint x="1601.9700000000003" y="70.00000000000011" as="targetPoint"/>
                    </mxGeometry>
                </mxCell>
                <mxCell id="31" value="instructors" style="swimlane;childLayout=stackLayout;horizontal=1;startSize=30;horizontalStack=0;rounded=1;fontSize=14;fontStyle=0;strokeWidth=2;resizeParent=0;resizeLast=1;shadow=0;dashed=0;align=center;" vertex="1" parent="1">
                    <mxGeometry x="2010" y="-200" width="300" height="210" as="geometry">
                        <mxRectangle x="210" y="190" width="100" height="30" as="alternateBounds"/>
                    </mxGeometry>
                </mxCell>
                <mxCell id="32" value="+ id SMALLINT PRIMARY KEY AUTO_INCREMENT&#10;+ first_name VARCHAR(50) NOT NULL&#10;+ first_name VARCHAR(50) NOT NULL&#10;" style="align=left;strokeColor=none;fillColor=none;spacingLeft=4;fontSize=12;verticalAlign=top;resizable=0;rotatable=0;part=1;" vertex="1" parent="31">
                    <mxGeometry y="30" width="300" height="180" as="geometry"/>
                </mxCell>
                <mxCell id="33" value="" style="edgeStyle=entityRelationEdgeStyle;fontSize=12;html=1;endArrow=ERoneToMany;entryX=0.999;entryY=0.54;entryDx=0;entryDy=0;exitX=0.5;exitY=1;exitDx=0;exitDy=0;entryPerimeter=0;" edge="1" parent="1" source="32" target="20">
                    <mxGeometry width="100" height="100" relative="1" as="geometry">
                        <mxPoint x="2197.356" y="296.9500000000002" as="sourcePoint"/>
                        <mxPoint x="1960" y="19.999999999999957" as="targetPoint"/>
                    </mxGeometry>
                </mxCell>
            </root>
        </mxGraphModel>
    </diagram>
</mxfile>